<svg id="smanim-canvas" viewBox="0 0 1023 576" xmlns="http://www.w3.org/2000/svg"><path d="M 1023 0 C 682 0 341 0 0 0 C 0 192 0 384 0 576 C 341 576 682 576 1023 576 C 1023 384 1023 192 1023 0 Z" fill="#000000" fill-opacity="1" id="id-15" stroke-dasharray="none"/><path d="M 561.852 288 C 561.852 284.36 561.456 280.72 560.674 277.165 C 559.893 273.611 558.725 270.141 557.198 266.838 C 555.671 263.534 553.785 260.397 551.585 257.499 C 549.384 254.602 546.868 251.943 544.097 249.587 C 541.325 247.231 538.298 245.176 535.085 243.471 C 531.872 241.766 528.474 240.411 524.97 239.437 C 521.467 238.463 517.857 237.871 514.226 237.674 C 510.595 237.477 506.943 237.675 503.354 238.264 C 499.766 238.853 496.241 239.832 492.863 241.18 C 489.485 242.527 486.253 244.242 483.243 246.284 C 480.234 248.327 477.446 250.697 474.945 253.34 C 472.444 255.983 470.231 258.897 468.356 262.016 C 466.481 265.135 464.945 268.458 463.784 271.907 C 462.623 275.357 461.837 278.932 461.444 282.551 C 461.05 286.169 461.05 289.831 461.444 293.449 C 461.837 297.068 462.623 300.643 463.784 304.093 C 464.945 307.542 466.481 310.865 468.356 313.984 C 470.231 317.103 472.444 320.017 474.945 322.66 C 477.446 325.303 480.234 327.673 483.243 329.716 C 486.253 331.758 489.485 333.473 492.863 334.82 C 496.241 336.168 499.766 337.147 503.354 337.736 C 506.943 338.325 510.595 338.523 514.226 338.326 C 517.857 338.129 521.467 337.537 524.97 336.563 C 528.474 335.589 531.872 334.234 535.085 332.529 C 538.298 330.824 541.325 328.769 544.097 326.413 C 546.868 324.057 549.384 321.398 551.585 318.501 C 553.785 315.603 555.671 312.466 557.198 309.162 C 558.725 305.859 559.893 302.389 560.674 298.835 C 561.456 295.28 561.852 291.64 561.852 288 Z" fill="#58C4DD" fill-opacity="1" id="id-16" stroke-dasharray="none"/><path d="M 565.448 234.074 C 529.581 234.074 493.714 234.074 457.847 234.074 C 457.847 270.025 457.847 305.975 457.847 341.926 C 493.714 341.926 529.581 341.926 565.448 341.926 C 565.448 305.975 565.448 270.025 565.448 234.074 Z" fill="#FFFF00" fill-opacity="0.35" id="id-17" stroke-dasharray="none"/></svg>