<svg id="smanim-canvas" viewBox="0 0 1023 576" xmlns="http://www.w3.org/2000/svg"><path d="M 1023 0 C 682 0 341 0 0 0 C 0 192 0 384 0 576 C 341 576 682 576 1023 576 C 1023 384 1023 192 1023 0 Z" fill="#000000" fill-opacity="1" id="id-108" stroke-dasharray="none"/><path d="M 565.448 234 C 529.483 234 493.517 234 457.552 234 C 457.552 270 457.552 306 457.552 342 C 493.517 342 529.483 342 565.448 342 C 565.448 306 565.448 270 565.448 234 Z" fill="#58C4DD" fill-opacity="1" id="id-109" stroke-dasharray="none"/><rect fill="transparent" height="107.896" id="id-110" width="107.896" x="457.552" y="234"/><path d="M 457.552 234 C 493.517 270 529.483 306 565.448 342" fill="none" fill-opacity="none" id="id-111" stroke="#FC6255" stroke-dasharray="none" stroke-opacity="1" stroke-width="4"/><path d="M 457.552 342 C 493.517 306 529.483 270 565.448 234" fill="none" fill-opacity="none" id="id-112" stroke="#FC6255" stroke-dasharray="none" stroke-opacity="1" stroke-width="4"/></svg>