<svg id="smanim-canvas" viewBox="0 0 1023 576" xmlns="http://www.w3.org/2000/svg"><path d="M 1023 0 C 682 0 341 0 0 0 C 0 192 0 384 0 576 C 341 576 682 576 1023 576 C 1023 384 1023 192 1023 0 Z" fill="#000000" fill-opacity="1" id="id-408" stroke-dasharray="none"/><path d="M 583.431 216 C 535.477 216 487.523 216 439.569 216 C 439.569 264 439.569 312 439.569 360 C 487.523 360 535.477 360 583.431 360 C 583.431 312 583.431 264 583.431 216 Z" fill="#58C4DD" fill-opacity="1" id="id-409" stroke-dasharray="none"/><path d="M 676.688 288 C 676.688 284.88 676.349 281.76 675.679 278.713 C 675.009 275.666 674.008 272.692 672.699 269.861 C 671.39 267.029 669.774 264.34 667.888 261.856 C 666.001 259.373 663.845 257.094 661.47 255.075 C 659.094 253.055 656.499 251.294 653.745 249.832 C 650.991 248.371 648.079 247.209 645.076 246.375 C 642.072 245.54 638.978 245.032 635.866 244.863 C 632.754 244.694 629.623 244.864 626.547 245.369 C 623.471 245.874 620.45 246.713 617.555 247.868 C 614.659 249.023 611.889 250.493 609.309 252.244 C 606.73 253.995 604.34 256.026 602.197 258.291 C 600.053 260.556 598.156 263.055 596.549 265.728 C 594.942 268.401 593.625 271.25 592.63 274.206 C 591.635 277.163 590.961 280.228 590.624 283.329 C 590.287 286.431 590.287 289.569 590.624 292.671 C 590.961 295.772 591.635 298.837 592.63 301.794 C 593.625 304.75 594.942 307.599 596.549 310.272 C 598.156 312.945 600.053 315.444 602.197 317.709 C 604.34 319.974 606.73 322.005 609.309 323.756 C 611.889 325.507 614.659 326.977 617.555 328.132 C 620.45 329.287 623.471 330.126 626.547 330.631 C 629.623 331.136 632.754 331.306 635.866 331.137 C 638.978 330.968 642.072 330.46 645.076 329.625 C 648.079 328.791 650.991 327.629 653.745 326.168 C 656.499 324.706 659.094 322.945 661.47 320.925 C 663.845 318.906 666.001 316.627 667.888 314.144 C 669.774 311.66 671.39 308.971 672.699 306.139 C 674.008 303.308 675.009 300.334 675.679 297.287 C 676.349 294.24 676.688 291.12 676.688 288 Z" fill="#FC6255" fill-opacity="1" id="id-410" stroke-dasharray="none"/></svg>