<svg id="smanim-canvas" viewBox="0 0 1023 576" xmlns="http://www.w3.org/2000/svg"><path d="M 1023 0 C 682 0 341 0 0 0 C 0 192 0 384 0 576 C 341 576 682 576 1023 576 C 1023 384 1023 192 1023 0 Z" fill="#000000" fill-opacity="1" id="id-426" stroke-dasharray="none"/><path d="M 583.431 288 C 583.431 285.4 583.29 282.8 583.009 280.215 C 582.728 277.631 582.307 275.061 581.749 272.522 C 581.191 269.983 580.495 267.474 579.665 265.01 C 578.836 262.546 577.873 260.128 576.783 257.768 C 575.692 255.408 574.474 253.108 573.134 250.88 C 571.795 248.652 570.336 246.497 568.764 244.427 C 567.192 242.358 565.508 240.373 563.721 238.486 C 561.935 236.598 560.047 234.807 558.067 233.124 C 556.087 231.441 554.017 229.865 551.867 228.406 C 549.717 226.947 547.488 225.605 545.193 224.387 C 542.898 223.169 540.537 222.076 538.124 221.114 C 535.711 220.151 533.246 219.32 530.744 218.624 C 528.241 217.929 525.7 217.369 523.137 216.948 C 520.574 216.528 517.988 216.246 515.394 216.106 C 512.801 215.965 510.199 215.965 507.606 216.106 C 505.012 216.246 502.426 216.528 499.863 216.948 C 497.3 217.369 494.759 217.929 492.256 218.624 C 489.754 219.32 487.289 220.151 484.876 221.114 C 482.463 222.076 480.102 223.169 477.807 224.387 C 475.512 225.605 473.283 226.947 471.133 228.406 C 468.983 229.865 466.913 231.441 464.933 233.124 C 462.953 234.807 461.065 236.598 459.279 238.486 C 457.492 240.373 455.808 242.358 454.236 244.427 C 452.664 246.497 451.205 248.652 449.866 250.88 C 448.526 253.108 447.308 255.408 446.217 257.768 C 445.127 260.128 444.164 262.546 443.335 265.01 C 442.505 267.474 441.809 269.983 441.251 272.522 C 440.693 275.061 440.272 277.631 439.991 280.215 C 439.71 282.8 439.569 285.4 439.569 288" fill="none" fill-opacity="none" id="id-427" stroke="#58C4DD" stroke-dasharray="none" stroke-opacity="1" stroke-width="4"/></svg>