<svg id="smanim-canvas" viewBox="0 0 1023 576" xmlns="http://www.w3.org/2000/svg"><path d="M 1023 0 C 682 0 341 0 0 0 C 0 192 0 384 0 576 C 341 576 682 576 1023 576 C 1023 384 1023 192 1023 0 Z" fill="#000000" fill-opacity="1" id="id-430" stroke-dasharray="none"/><path d="M 589.185 324 C 589.185 323.584 589.14 323.168 589.051 322.762 C 588.961 322.356 588.828 321.959 588.653 321.581 C 588.479 321.204 588.263 320.845 588.012 320.514 C 587.76 320.183 587.473 319.879 587.156 319.61 C 586.839 319.341 586.493 319.106 586.126 318.911 C 585.759 318.716 585.371 318.561 584.97 318.45 C 584.57 318.339 584.157 318.271 583.742 318.248 C 583.327 318.226 582.91 318.249 582.5 318.316 C 582.09 318.383 581.687 318.495 581.301 318.649 C 580.915 318.803 580.545 318.999 580.201 319.233 C 579.858 319.466 579.539 319.737 579.253 320.039 C 578.967 320.341 578.714 320.674 578.5 321.03 C 578.286 321.387 578.11 321.767 577.978 322.161 C 577.845 322.555 577.755 322.964 577.71 323.377 C 577.665 323.791 577.665 324.209 577.71 324.623 C 577.755 325.036 577.845 325.445 577.978 325.839 C 578.11 326.233 578.286 326.613 578.5 326.97 C 578.714 327.326 578.967 327.659 579.253 327.961 C 579.539 328.263 579.858 328.534 580.201 328.767 C 580.545 329.001 580.915 329.197 581.301 329.351 C 581.687 329.505 582.09 329.617 582.5 329.684 C 582.91 329.751 583.327 329.774 583.742 329.752 C 584.157 329.729 584.57 329.661 584.97 329.55 C 585.371 329.439 585.759 329.284 586.126 329.089 C 586.493 328.894 586.839 328.659 587.156 328.39 C 587.473 328.121 587.76 327.817 588.012 327.486 C 588.263 327.155 588.479 326.796 588.653 326.419 C 588.828 326.041 588.961 325.644 589.051 325.238 C 589.14 324.832 589.185 324.416 589.185 324 Z" fill="#58C4DD" fill-opacity="1" id="id-431" stroke-dasharray="none"/></svg>