<svg id="smanim-canvas" viewBox="0 0 1023 576" xmlns="http://www.w3.org/2000/svg"><path d="M 1023 0 C 682 0 341 0 0 0 C 0 192 0 384 0 576 C 341 576 682 576 1023 576 C 1023 384 1023 192 1023 0 Z" fill="#000000" fill-opacity="1" id="id-514" stroke-dasharray="none"/><path d="M 659.725 211.632 C 658.347 210.254 656.933 208.912 655.483 207.61 C 654.033 206.308 652.547 205.045 651.029 203.823 C 649.511 202.602 647.959 201.421 646.377 200.284 C 644.795 199.146 643.182 198.051 641.54 197.001 C 639.899 195.951 638.229 194.945 636.533 193.986 C 634.837 193.026 633.116 192.112 631.37 191.246 C 629.625 190.379 627.856 189.56 626.067 188.79 C 624.277 188.019 622.467 187.297 620.638 186.625 C 618.81 185.952 616.963 185.33 615.101 184.757 C 613.239 184.185 611.361 183.663 609.47 183.192 C 607.58 182.722 605.677 182.302 603.763 181.935 C 601.85 181.568 599.927 181.252 597.997 180.989 C 596.067 180.725 594.129 180.515 592.188 180.356 C 590.246 180.198 588.3 180.092 586.353 180.04 C 584.405 179.987 582.456 179.987 580.509 180.04 C 578.562 180.092 576.616 180.198 574.674 180.356 C 572.732 180.515 570.795 180.725 568.865 180.989 C 566.935 181.252 565.011 181.568 563.098 181.935 C 561.185 182.302 559.282 182.722 557.391 183.192 C 555.501 183.663 553.623 184.185 551.761 184.757 C 549.899 185.33 548.052 185.952 546.223 186.625 C 544.395 187.297 542.584 188.019 540.795 188.79 C 539.005 189.56 537.236 190.379 535.491 191.246 C 533.746 192.112 532.024 193.026 530.328 193.986 C 528.633 194.945 526.963 195.951 525.321 197.001 C 523.68 198.051 522.067 199.146 520.485 200.284 C 518.903 201.421 517.351 202.602 515.833 203.823 C 514.314 205.045 512.829 206.308 511.379 207.61 C 509.929 208.912 508.514 210.254 507.137 211.632" fill="none" fill-opacity="none" id="id-515" stroke="#58C4DD" stroke-dasharray="none" stroke-opacity="1" stroke-width="4"/></svg>