<svg id="smanim-canvas" viewBox="0 0 1023 576" xmlns="http://www.w3.org/2000/svg" xmlns:xlink="http://www.w3.org/1999/xlink"><path d="M 1023 0 C 682 0 341 0 0 0 C 0 192 0 384 0 576 C 341 576 682 576 1023 576 C 1023 384 1023 192 1023 0 Z" fill="#000000" fill-opacity="1" id="id-538" stroke-dasharray="none"/><path d="M 547.465 252 C 523.488 252 499.512 252 475.535 252 C 475.535 276 475.535 300 475.535 324 C 499.512 324 523.488 324 547.465 324 C 547.465 300 547.465 276 547.465 252 Z" fill="#58C4DD" fill-opacity="1" id="id-539" stroke-dasharray="none"/><path d="M 547.465 288 C 607.408 288 667.35 288 727.292 288" fill="none" fill-opacity="none" id="id-540" stroke="#FFFFFF" stroke-dasharray="none" stroke-opacity="1" stroke-width="4"/></svg>