<svg id="smanim-canvas" viewBox="0 0 1023 576" xmlns="http://www.w3.org/2000/svg"><path d="M 1023 0 C 682 0 341 0 0 0 C 0 192 0 384 0 576 C 341 576 682 576 1023 576 C 1023 384 1023 192 1023 0 Z" fill="#000000" fill-opacity="1" id="id-451" stroke-dasharray="none"/><path d="M 583.431 216 C 535.477 216 487.523 216 439.569 216 C 439.569 264 439.569 312 439.569 360 C 487.523 360 535.477 360 583.431 360 C 583.431 312 583.431 264 583.431 216 Z" fill="#58C4DD" fill-opacity="1" id="id-452" stroke-dasharray="none"/><path d="M 511.5 127.8 C 495.927 154.8 480.353 181.8 464.78 208.8 C 495.927 208.8 527.073 208.8 558.22 208.8 C 542.647 181.8 527.073 154.8 511.5 127.8 Z" fill="#FC6255" fill-opacity="1" id="id-453" stroke-dasharray="none"/></svg>