<svg id="smanim-canvas" viewBox="0 0 1023 576" xmlns="http://www.w3.org/2000/svg"><path d="M 1023 0 C 682 0 341 0 0 0 C 0 192 0 384 0 576 C 341 576 682 576 1023 576 C 1023 384 1023 192 1023 0 Z" fill="#000000" fill-opacity="1" id="id-528" stroke-dasharray="none"/><path d="M 547.465 252 C 523.488 252 499.512 252 475.535 252 C 475.535 276 475.535 300 475.535 324 C 499.512 324 523.488 324 547.465 324 C 547.465 300 547.465 276 547.465 252 Z" fill="#58C4DD" fill-opacity="1" id="id-529" stroke-dasharray="none"/><path d="M 626.589 252 C 602.612 252 578.635 252 554.658 252 C 554.658 276 554.658 300 554.658 324 C 578.635 324 602.612 324 626.589 324 C 626.589 300 626.589 276 626.589 252 Z" fill="#FC6255" fill-opacity="1" id="id-530" stroke-dasharray="none"/><path d="M 705.713 252 C 681.736 252 657.759 252 633.782 252 C 633.782 276 633.782 300 633.782 324 C 657.759 324 681.736 324 705.713 324 C 705.713 300 705.713 276 705.713 252 Z" fill="#83C167" fill-opacity="1" id="id-531" stroke-dasharray="none"/></svg>