<svg id="smanim-canvas" viewBox="0 0 1023 576" xmlns="http://www.w3.org/2000/svg"><path d="M 1023 0 C 682 0 341 0 0 0 C 0 192 0 384 0 576 C 341 576 682 576 1023 576 C 1023 384 1023 192 1023 0 Z" fill="#000000" fill-opacity="1" id="id-549" stroke-dasharray="none"/><path d="M 583.431 288 C 571.442 267.215 559.454 246.431 547.465 225.646 C 523.488 225.646 499.512 225.646 475.535 225.646 C 463.546 246.431 451.558 267.215 439.569 288 C 451.558 308.785 463.546 329.569 475.535 350.354 C 499.512 350.354 523.488 350.354 547.465 350.354 C 559.454 329.569 571.442 308.785 583.431 288 Z" fill="#58C4DD" fill-opacity="1" id="id-550" stroke-dasharray="none"/></svg>