<svg id="smanim-canvas" xmlns="http://www.w3.org/2000/svg" viewBox="0 0 1023 576"><path stroke-dasharray="none" id="id-5103561488" d="M 1023.0 0.0 C 682.0 0.0 341.0 0.0 -0.0 0.0 C -0.0 192.0 0.0 384.0 -0.0 576.0 C 341.0 576.0 682.0 576.0 1023.0 576.0 C 1023.0 384.0 1023.0 192.0 1023.0 0.0 Z " fill-opacity="1.0" fill="#000000"/><path stroke-dasharray="none" id="id-4430006272" d="M 547.465 252.0 C 523.488 252.0 499.512 252.0 475.535 252.0 C 475.535 276.0 475.535 300.0 475.535 324.0 C 499.512 324.0 523.488 324.0 547.465 324.0 C 547.465 300.0 547.465 276.0 547.465 252.0 Z " fill-opacity="1.0" fill="#58C4DD"/><path stroke="#FFFFFF" stroke-dasharray="none" stroke-opacity="1.0" stroke-width="4.0" id="id-5100842560" d="M 547.465 288.0 C 607.408 288.0 667.35 288.0 727.292 288.0" fill-opacity="none" fill="none"/></svg>