<svg id="smanim-canvas" xmlns="http://www.w3.org/2000/svg" viewBox="0 0 1023 576"><path stroke-dasharray="none" id="id-5092049888" d="M 1023.0 0.0 C 682.0 0.0 341.0 0.0 -0.0 0.0 C -0.0 192.0 0.0 384.0 -0.0 576.0 C 341.0 576.0 682.0 576.0 1023.0 576.0 C 1023.0 384.0 1023.0 192.0 1023.0 0.0 Z " fill-opacity="1.0" fill="#000000"/><path stroke="#58C4DD" stroke-dasharray="none" stroke-opacity="1.0" stroke-width="4.0" id="id-5104938080" d="M 583.431 288.0 C 583.431 286.7 583.396 285.4 583.325 284.102 C 583.255 282.804 583.15 281.508 583.009 280.215 C 582.869 278.923 582.693 277.635 582.483 276.352 C 582.273 275.069 582.028 273.792 581.749 272.522 C 581.47 271.253 581.156 269.991 580.809 268.738 C 580.461 267.485 580.08 266.242 579.665 265.01 C 579.251 263.778 578.803 262.558 578.322 261.35 C 577.841 260.142 577.328 258.948 576.783 257.768 C 576.237 256.588 575.66 255.423 575.052 254.275 C 574.443 253.126 573.804 251.994 573.134 250.88 C 572.465 249.766 571.765 248.671 571.036 247.595 C 570.308 246.519 569.55 245.462 568.764 244.427 C 567.978 243.393 567.164 242.379 566.323 241.388 C 565.482 240.397 564.615 239.429 563.721 238.486 C 562.828 237.542 561.91 236.622 560.967 235.728 C 560.024 234.834 559.057 233.966 558.067 233.124 C 557.077 232.283 556.065 231.468 555.031 230.681 C 553.997 229.895 552.942 229.136 551.867 228.406 C 550.792 227.677 549.697 226.976 548.584 226.306 C 547.471 225.636 546.34 224.996 545.193 224.387 C 544.046 223.778 542.882 223.2 541.703 222.655 C 540.524 222.109 539.331 221.595 538.124 221.114 C 536.918 220.633 535.698 220.184 534.468 219.769 C 533.237 219.354 531.995 218.972 530.744 218.624 C 529.492 218.277 528.231 217.963 526.963 217.683 C 525.695 217.404 524.419 217.159 523.137 216.948 C 521.855 216.738 520.568 216.563 519.277 216.422 C 517.986 216.282 516.691 216.176 515.394 216.106 C 514.097 216.035 512.799 216.0 511.5 216.0" fill-opacity="none" fill="none"/></svg>