<svg id="smanim-canvas" xmlns="http://www.w3.org/2000/svg" viewBox="0 0 1023 576"><path stroke-dasharray="none" id="id-5105339856" d="M 1023.0 0.0 C 682.0 0.0 341.0 0.0 -0.0 0.0 C -0.0 192.0 0.0 384.0 -0.0 576.0 C 341.0 576.0 682.0 576.0 1023.0 576.0 C 1023.0 384.0 1023.0 192.0 1023.0 0.0 Z " fill-opacity="1.0" fill="#000000"/><path stroke-dasharray="none" id="id-5105339712" d="M 547.465 252.0 C 523.488 252.0 499.512 252.0 475.535 252.0 C 475.535 276.0 475.535 300.0 475.535 324.0 C 499.512 324.0 523.488 324.0 547.465 324.0 C 547.465 300.0 547.465 276.0 547.465 252.0 Z " fill-opacity="1.0" fill="#58C4DD"/><path stroke-dasharray="none" id="id-5105339616" d="M 626.589 252.0 C 602.612 252.0 578.635 252.0 554.658 252.0 C 554.658 276.0 554.658 300.0 554.658 324.0 C 578.635 324.0 602.612 324.0 626.589 324.0 C 626.589 300.0 626.589 276.0 626.589 252.0 Z " fill-opacity="1.0" fill="#FC6255"/><path stroke-dasharray="none" id="id-5105339424" d="M 705.713 252.0 C 681.736 252.0 657.759 252.0 633.782 252.0 C 633.782 276.0 633.782 300.0 633.782 324.0 C 657.759 324.0 681.736 324.0 705.713 324.0 C 705.713 300.0 705.713 276.0 705.713 252.0 Z " fill-opacity="1.0" fill="#83C167"/></svg>