<svg id="smanim-canvas" xmlns="http://www.w3.org/2000/svg" viewBox="0 0 1023 576"><path stroke-dasharray="none" id="id-5093354352" d="M 1023.0 0.0 C 682.0 0.0 341.0 0.0 -0.0 0.0 C -0.0 192.0 0.0 384.0 -0.0 576.0 C 341.0 576.0 682.0 576.0 1023.0 576.0 C 1023.0 384.0 1023.0 192.0 1023.0 0.0 Z " fill-opacity="1.0" fill="#000000"/><path stroke-dasharray="none" id="id-5104938848" d="M 583.431 216.0 C 535.477 216.0 487.523 216.0 439.569 216.0 C 439.569 264.0 439.569 312.0 439.569 360.0 C 487.523 360.0 535.477 360.0 583.431 360.0 C 583.431 312.0 583.431 264.0 583.431 216.0 Z " fill-opacity="1.0" fill="#58C4DD"/><path stroke-dasharray="none" id="id-5104937936" d="M 511.5 127.8 C 495.927 154.8 480.353 181.8 464.78 208.8 C 495.927 208.8 527.073 208.8 558.22 208.8 C 542.647 181.8 527.073 154.8 511.5 127.8 Z " fill-opacity="1.0" fill="#FC6255"/></svg>