<svg id="smanim-canvas" xmlns="http://www.w3.org/2000/svg" viewBox="0 0 1023 576"><path stroke-dasharray="none" id="id-5104938896" d="M 1023.0 0.0 C 682.0 0.0 341.0 0.0 -0.0 0.0 C -0.0 192.0 0.0 384.0 -0.0 576.0 C 341.0 576.0 682.0 576.0 1023.0 576.0 C 1023.0 384.0 1023.0 192.0 1023.0 0.0 Z " fill-opacity="1.0" fill="#000000"/><path stroke-dasharray="none" id="id-5104938608" d="M 583.431 216.0 C 535.477 216.0 487.523 216.0 439.569 216.0 C 439.569 264.0 439.569 312.0 439.569 360.0 C 487.523 360.0 535.477 360.0 583.431 360.0 C 583.431 312.0 583.431 264.0 583.431 216.0 Z " fill-opacity="1.0" fill="#58C4DD"/><path stroke-dasharray="none" id="id-5104938704" d="M 637.344 247.5 C 621.771 274.5 606.197 301.5 590.624 328.5 C 621.771 328.5 652.918 328.5 684.065 328.5 C 668.491 301.5 652.918 274.5 637.344 247.5 Z " fill-opacity="1.0" fill="#FC6255"/></svg>