<svg id="smanim-canvas" xmlns="http://www.w3.org/2000/svg" viewBox="0 0 1023 576"><path stroke-dasharray="none" id="id-5104940000" d="M 1023.0 0.0 C 682.0 0.0 341.0 0.0 -0.0 0.0 C -0.0 192.0 0.0 384.0 -0.0 576.0 C 341.0 576.0 682.0 576.0 1023.0 576.0 C 1023.0 384.0 1023.0 192.0 1023.0 0.0 Z " fill-opacity="1.0" fill="#000000"/><path stroke-dasharray="none" id="id-5104941104" d="M 655.362 288.0 C 655.362 277.6 654.232 267.201 651.998 257.044 C 649.765 246.888 646.428 236.975 642.065 227.536 C 637.703 218.097 632.315 209.134 626.027 200.855 C 619.74 192.576 612.553 184.981 604.634 178.249 C 596.715 171.516 588.065 165.646 578.886 160.774 C 569.707 155.903 559.998 152.031 549.987 149.249 C 539.976 146.467 529.663 144.774 519.289 144.211 C 508.914 143.648 498.479 144.214 488.226 145.897 C 477.973 147.579 467.903 150.378 458.251 154.227 C 448.599 158.077 439.366 162.977 430.767 168.813 C 422.167 174.649 414.202 181.421 407.057 188.971 C 399.912 196.521 393.588 204.849 388.231 213.76 C 382.875 222.671 378.487 232.165 375.169 242.021 C 371.852 251.876 369.605 262.092 368.482 272.431 C 367.358 282.77 367.358 293.23 368.482 303.569 C 369.605 313.908 371.852 324.124 375.169 333.979 C 378.487 343.835 382.875 353.329 388.231 362.24 C 393.588 371.151 399.912 379.479 407.057 387.029 C 414.202 394.579 422.167 401.351 430.767 407.187 C 439.366 413.023 448.599 417.923 458.251 421.773 C 467.903 425.622 477.973 428.421 488.226 430.103 C 498.479 431.786 508.914 432.352 519.289 431.789 C 529.663 431.226 539.976 429.533 549.987 426.751 C 559.998 423.969 569.707 420.097 578.886 415.226 C 588.065 410.354 596.715 404.484 604.634 397.751 C 612.553 391.019 619.74 383.424 626.027 375.145 C 632.315 366.866 637.703 357.903 642.065 348.464 C 646.428 339.025 649.765 329.112 651.998 318.956 C 654.232 308.799 655.362 298.4 655.362 288.0 Z " fill-opacity="1.0" fill="#58C4DD"/></svg>