<svg id="smanim-canvas" xmlns="http://www.w3.org/2000/svg" viewBox="0 0 1023 576"><path stroke-dasharray="none" id="id-5104937600" d="M 1023.0 0.0 C 682.0 0.0 341.0 0.0 -0.0 0.0 C -0.0 192.0 0.0 384.0 -0.0 576.0 C 341.0 576.0 682.0 576.0 1023.0 576.0 C 1023.0 384.0 1023.0 192.0 1023.0 0.0 Z " fill-opacity="1.0" fill="#000000"/><path stroke-dasharray="none" id="id-5104932176" d="M 583.431 288.0 C 571.442 267.215 559.454 246.431 547.465 225.646 C 523.488 225.646 499.512 225.646 475.535 225.646 C 463.546 246.431 451.558 267.215 439.569 288.0 C 451.558 308.785 463.546 329.569 475.535 350.354 C 499.512 350.354 523.488 350.354 547.465 350.354 C 559.454 329.569 571.442 308.785 583.431 288.0 Z " fill-opacity="1.0" fill="#58C4DD"/></svg>